<svg width="1600" height="800" viewBox="0 0 1600 800" fill="none" xmlns="http://www.w3.org/2000/svg">
<g clip-path="url(#clip0_694_140)">
<path d="M800 0H1600V800H800V0Z" fill="#F7DF1E"/>
<path d="M1010.35 668.538L1071.57 631.488C1083.38 652.429 1094.12 670.147 1119.9 670.147C1144.6 670.147 1160.18 660.485 1160.18 622.897V367.279H1235.36V623.96C1235.36 701.825 1189.71 737.269 1123.12 737.269C1062.98 737.269 1028.07 706.122 1010.35 668.532M1276.19 660.482L1337.4 625.041C1353.52 651.357 1374.46 670.688 1411.51 670.688C1442.67 670.688 1462.53 655.113 1462.53 633.632C1462.53 607.857 1442.12 598.725 1407.75 583.694L1388.96 575.632C1334.72 552.547 1298.74 523.547 1298.74 462.329C1298.74 405.941 1341.7 362.979 1408.83 362.979C1456.62 362.979 1490.99 379.628 1515.69 423.125L1457.16 460.719C1444.27 437.628 1430.31 428.5 1408.83 428.5C1386.81 428.5 1372.85 442.463 1372.85 460.719C1372.85 483.272 1386.81 492.407 1419.03 506.369L1437.82 514.422C1501.73 541.813 1537.71 569.735 1537.71 632.56C1537.71 700.229 1484.54 737.278 1413.12 737.278C1343.31 737.278 1298.2 703.985 1276.19 660.485" fill="black"/>
</g>
<rect width="800" height="800" fill="#141735"/>
<g clip-path="url(#clip1_694_140)">
<path fill-rule="evenodd" clip-rule="evenodd" d="M526.192 543.673L508.502 477.653L518.722 474.915L541.195 558.786L263.453 482.631L466.137 278.667L488.6 362.497L478.38 365.235L460.679 299.174L283.765 477.225L526.192 543.673Z" fill="white"/>
<path fill-rule="evenodd" clip-rule="evenodd" d="M219.701 412.183L230.769 453.488L178.936 505.32L249.74 524.292L260.808 565.597L107.397 524.489L219.701 412.183Z" fill="url(#paint0_linear_694_140)"/>
<path fill-rule="evenodd" clip-rule="evenodd" d="M543.435 282.136L502.13 271.069L483.159 200.264L431.327 252.097L390.022 241.029L502.328 128.724L543.435 282.136Z" fill="url(#paint1_linear_694_140)"/>
<path fill-rule="evenodd" clip-rule="evenodd" d="M495.495 629.12L525.733 598.882L596.538 617.855L577.565 547.051L607.802 516.813L648.908 670.226L495.495 629.12Z" fill="url(#paint2_linear_694_140)"/>
<path fill-rule="evenodd" clip-rule="evenodd" d="M369.638 647.968L360.511 554.242L424.405 571.363L369.638 647.968Z" fill="url(#paint3_linear_694_140)"/>
<path fill-rule="evenodd" clip-rule="evenodd" d="M265.322 293.201L304.28 378.934L351.055 332.16L265.322 293.201Z" fill="url(#paint4_linear_694_140)"/>
<path fill-rule="evenodd" clip-rule="evenodd" d="M624.944 389.192L531.218 380.065L548.339 443.96L624.944 389.192Z" fill="url(#paint5_linear_694_140)"/>
<path d="M489.877 387.712C503.047 384.183 510.863 370.646 507.334 357.476C503.805 344.306 490.268 336.491 477.098 340.02C463.928 343.548 456.113 357.086 459.642 370.255C463.17 383.425 476.708 391.241 489.877 387.712Z" fill="white"/>
<path d="M520.005 500.126C533.175 496.597 540.991 483.06 537.462 469.89C533.933 456.72 520.396 448.905 507.226 452.434C494.056 455.963 486.241 469.5 489.769 482.67C493.298 495.839 506.835 503.655 520.005 500.126Z" fill="white"/>
<path d="M540.085 575.076C553.255 571.548 561.071 558.01 557.542 544.841C554.013 531.671 540.476 523.855 527.306 527.384C514.136 530.913 506.321 544.45 509.85 557.62C513.378 570.79 526.916 578.605 540.085 575.076Z" fill="white"/>
<path d="M279.996 503.769C293.166 500.24 300.981 486.703 297.452 473.533C293.923 460.363 280.386 452.547 267.216 456.076C254.046 459.605 246.231 473.142 249.76 486.312C253.289 499.482 266.826 507.298 279.996 503.769Z" fill="white"/>
<path d="M469.797 312.761C482.967 309.232 490.783 295.695 487.254 282.525C483.725 269.355 470.188 261.54 457.018 265.068C443.848 268.597 436.033 282.134 439.561 295.304C443.09 308.474 456.627 316.29 469.797 312.761Z" fill="white"/>
<path fill-rule="evenodd" clip-rule="evenodd" d="M492.301 340.796C492.301 340.796 484.825 338.652 482.535 335.148C480.734 332.378 477.446 322.014 476.815 320.068C474.218 312.147 482.432 304.646 482.432 304.646L451.243 313.613C451.243 313.613 461.843 310.384 466.323 322.879C467.021 324.804 468.316 333.45 468.909 338.799C469.598 342.598 464.748 347.799 464.748 347.799L492.301 340.796Z" fill="white"/>
<path fill-rule="evenodd" clip-rule="evenodd" d="M538.563 526.948C538.563 526.948 532.755 526.533 531.225 521.639C530.313 518.235 529.978 517.121 529.002 513.341C528.355 511.335 527.673 509.199 527.351 507.18C525.307 497.782 530.623 494.185 530.623 494.185L506.461 499.94C506.461 499.94 513.597 500.546 517.036 509.563C517.767 511.473 518.528 514.588 518.936 516.655C519.798 520.008 519.863 520.253 520.78 523.537C522.333 528.923 518.979 531.397 518.979 531.397L538.563 526.948Z" fill="white"/>
<path fill-rule="evenodd" clip-rule="evenodd" d="M300.476 475.206C300.476 475.206 295.746 471.182 304.398 459.459C309.273 452.852 316.203 445.737 323.716 437.666C337.437 422.92 354.325 406.095 371.111 389.166C385.284 374.88 399.453 360.582 412.343 348.186C423.085 337.86 432.79 328.701 440.759 321.786C442.33 320.426 443.994 319.415 445.287 318.11C453.002 310.381 461.59 313.547 461.59 313.547L438.914 291.872C438.914 291.872 440.63 301.547 435.083 307.962C433.887 309.357 432.782 310.956 431.449 312.524C424.579 320.54 415.474 330.299 405.225 341.106C392.895 354.093 378.71 368.335 364.495 382.597C347.696 399.481 330.967 416.488 316.303 430.304C308.288 437.864 301.149 444.742 294.64 449.748C285.132 457.049 274.727 455.144 274.727 455.144L300.476 475.206Z" fill="white"/>
<path fill-rule="evenodd" clip-rule="evenodd" d="M289.441 498.882C289.441 498.882 292.194 494.167 307.187 496.568C315.279 497.879 324.948 500.036 335.669 502.575C355.276 507.209 378.268 513.572 401.258 519.795C420.7 525.039 439.749 530.586 456.92 535.666C471.199 539.9 496.679 546.555 498.458 547.065C510.087 550.403 509.371 555.496 509.371 555.496L515.174 534.912C515.174 534.912 511.026 540.008 501.431 536.904C499.673 536.337 474.368 529.243 459.901 525.672C442.54 521.382 423.121 516.084 403.704 510.798C380.701 504.531 357.664 498.404 338.408 492.493C327.866 489.26 318.26 486.659 310.782 483.279C295.747 476.494 299.894 467.581 299.894 467.581L289.441 498.882Z" fill="white"/>
</g>
<defs>
<linearGradient id="paint0_linear_694_140" x1="116.777" y1="479.929" x2="683.615" y2="479.929" gradientUnits="userSpaceOnUse">
<stop stop-color="#FF8F00"/>
<stop offset="1" stop-color="#FE00FF"/>
</linearGradient>
<linearGradient id="paint1_linear_694_140" x1="116.419" y1="479.929" x2="683.257" y2="479.929" gradientUnits="userSpaceOnUse">
<stop stop-color="#FF8F00"/>
<stop offset="1" stop-color="#FE00FF"/>
</linearGradient>
<linearGradient id="paint2_linear_694_140" x1="117.902" y1="479.927" x2="684.744" y2="479.927" gradientUnits="userSpaceOnUse">
<stop stop-color="#FF8F00"/>
<stop offset="1" stop-color="#FE00FF"/>
</linearGradient>
<linearGradient id="paint3_linear_694_140" x1="117.851" y1="479.926" x2="684.689" y2="479.926" gradientUnits="userSpaceOnUse">
<stop stop-color="#FF8F00"/>
<stop offset="1" stop-color="#FE00FF"/>
</linearGradient>
<linearGradient id="paint4_linear_694_140" x1="116.804" y1="479.929" x2="683.646" y2="479.929" gradientUnits="userSpaceOnUse">
<stop stop-color="#FF8F00"/>
<stop offset="1" stop-color="#FE00FF"/>
</linearGradient>
<linearGradient id="paint5_linear_694_140" x1="116.911" y1="479.928" x2="683.749" y2="479.928" gradientUnits="userSpaceOnUse">
<stop stop-color="#FF8F00"/>
<stop offset="1" stop-color="#FE00FF"/>
</linearGradient>
<clipPath id="clip0_694_140">
<rect width="800" height="800" fill="white" transform="translate(800)"/>
</clipPath>
<clipPath id="clip1_694_140">
<rect width="567" height="567" fill="white" transform="translate(94 116)"/>
</clipPath>
</defs>
</svg>
